<svg id="Layer_1" data-name="Layer 1" xmlns="http://www.w3.org/2000/svg" viewBox="0 0 98 24"><defs><style>.cls-1{fill:#fff}</style></defs><g id="iPhone_X_R" data-name="iPhone X R"><path class="cls-1" d="M1.24 5.45a1.26 1.26 0 0 1 1.28-1.26 1.26 1.26 0 1 1-1.28 1.26zm.17 2.83h2.2V19h-2.2zm10.25-4a4.62 4.62 0 0 1 4.85 4.83A4.67 4.67 0 0 1 11.6 14H8.44v5H6.16V4.29zm-3.22 7.78h2.62c2 0 3.12-1.07 3.12-2.92S13 6.22 11.06 6.22H8.44zm9.64-7.77h2.18v5.81h.05a3.47 3.47 0 0 1 3.4-2c2.36 0 3.76 1.57 3.76 4V19h-2.21v-6.42c0-1.58-.8-2.54-2.34-2.54a2.55 2.55 0 0 0-2.63 2.83V19h-2.2V4.29zm11 9.34c0-3.37 2-5.5 5.09-5.5s5.09 2.12 5.09 5.5-2 5.5-5.09 5.5S29 17 29 13.63zm7.93 0C37 11.32 35.91 10 34.13 10s-2.84 1.38-2.84 3.68 1.06 3.68 2.84 3.68S37 16 37 13.63zm3.82-5.36h2.1v1.83h.05a3.43 3.43 0 0 1 3.37-2c2.37 0 3.72 1.52 3.72 4V19h-2.25v-6.44c0-1.61-.75-2.51-2.3-2.51A2.49 2.49 0 0 0 43 12.83V19h-2.2zm20.5 7.58c-.29 2-2.19 3.29-4.62 3.29-3.12 0-5.05-2.09-5.05-5.44s2-5.55 5-5.55 4.83 2 4.83 5.29v.75h-7.65v.13a2.79 2.79 0 0 0 2.89 3 2.43 2.43 0 0 0 2.48-1.51zm-7.45-3.21h5.37a2.58 2.58 0 0 0-2.63-2.72 2.72 2.72 0 0 0-2.77 2.73zm16.34-1v-.07L65.36 4.3h2.72l3.63 5.7h.08l3.67-5.7H78l-5 7.34v.06l4.95 7.3h-2.67l-3.66-5.61h-.07L67.84 19h-2.53zm26.53-3.86a3.63 3.63 0 0 0-3.69-3.68h-7.71a3.62 3.62 0 0 0-3.68 3.68v7.71a3.61 3.61 0 0 0 3.68 3.68h7.71a3.62 3.62 0 0 0 3.68-3.68V8.62zm-1.35 7.67a2.29 2.29 0 0 1-2.4 2.39h-7.6a2.29 2.29 0 0 1-2.4-2.39V7.84a2.29 2.29 0 0 1 2.4-2.4h7.61a2.29 2.29 0 0 1 2.39 2.4v7.61z"/><path class="cls-1" d="M90.86 12.39a2.27 2.27 0 0 0 1.48-2.23c0-1.49-1-2.43-2.71-2.43h-3.12v7.8h1.4v-2.94h1.52L91 15.53h1.6zm-1.37-.86h-1.58V8.87h1.56a1.29 1.29 0 0 1 1.44 1.33 1.26 1.26 0 0 1-1.42 1.33z"/><path id="BOUNDS" d="M0 0h98v24H0z" fill="none"/></g></svg>